<svg width="48" height="48" viewBox="0 0 48 48" fill="none" xmlns="http://www.w3.org/2000/svg">
<path d="M21.4287 36.7347C21.4287 37.5141 21.6996 38.2616 22.1818 38.8127C22.664 39.3638 23.3181 39.6735 24 39.6735C24.6819 39.6735 25.336 39.3638 25.8182 38.8127C26.3004 38.2616 26.5713 37.5141 26.5713 36.7347C26.5713 35.9553 26.3004 35.2078 25.8182 34.6567C25.336 34.1055 24.6819 33.7959 24 33.7959C23.3181 33.7959 22.664 34.1055 22.1818 34.6567C21.6996 35.2078 21.4287 35.9553 21.4287 36.7347ZM22.2858 18.1224V29.3878C22.2858 29.6571 22.4787 29.8776 22.7144 29.8776H25.2856C25.5213 29.8776 25.7142 29.6571 25.7142 29.3878V18.1224C25.7142 17.8531 25.5213 17.6327 25.2856 17.6327H22.7144C22.4787 17.6327 22.2858 17.8531 22.2858 18.1224ZM47.7683 45.0612L25.4838 0.979592C25.1517 0.32449 24.5785 0 24 0C23.4215 0 22.8429 0.32449 22.5162 0.979592L0.231702 45.0612C-0.42719 46.3714 0.397763 48 1.71555 48H46.2845C47.6022 48 48.4272 46.3714 47.7683 45.0612ZM5.79746 43.3531L24 7.34082L42.2025 43.3531H5.79746Z" fill="#474747"/>
</svg>
