<svg width="48" height="48" viewBox="0 0 48 48" fill="none" xmlns="http://www.w3.org/2000/svg">
<path d="M23.9983 21.6658C23.9983 22.3008 24.2707 22.9097 24.7556 23.3587C25.2404 23.8076 25.898 24.0598 26.5837 24.0598C27.2693 24.0598 27.9269 23.8076 28.4118 23.3587C28.8966 22.9097 29.169 22.3008 29.169 21.6658C29.169 21.0309 28.8966 20.422 28.4118 19.973C27.9269 19.524 27.2693 19.2718 26.5837 19.2718C25.898 19.2718 25.2404 19.524 24.7556 19.973C24.2707 20.422 23.9983 21.0309 23.9983 21.6658ZM47.7188 42.787L35.9103 14.4838V4.06983H40.5445V0H7.45222V4.06983H12.0864V14.4838L0.277923 42.787C0.0969501 43.2299 0 43.6968 0 44.1696C0 46.2823 1.85498 48 4.13653 48H43.8602C44.3708 48 44.8749 47.9102 45.3532 47.7426C47.4861 46.9825 48.5461 44.7621 47.7188 42.787ZM16.4815 15.2439V4.18953H31.5152V15.2439L37.3904 29.3267C36.0525 29.0095 34.6693 28.8479 33.2603 28.8479C29.3047 28.8479 25.556 30.1347 22.5764 32.4389C20.3773 34.14 17.6018 35.0702 14.7364 35.0663C12.6229 35.0663 10.5934 34.5696 8.80305 33.6479L16.4815 15.2439ZM4.5114 43.9302L7.20661 37.4783C9.51402 38.5616 12.08 39.1421 14.7429 39.1421C18.6984 39.1421 22.4471 37.8554 25.4267 35.5511C27.6178 33.8633 30.3583 32.9237 33.2668 32.9237C35.5289 32.9237 37.6877 33.4923 39.575 34.5456L43.4853 43.9302H4.5114Z" fill="#474747"/>
</svg>
