<svg width="48" height="48" viewBox="0 0 48 48" fill="none" xmlns="http://www.w3.org/2000/svg">
<path d="M41.037 12.36V4.32H47.4074C47.7333 4.32 48 4.104 48 3.84V0.48C48 0.216 47.7333 0 47.4074 0H0.592593C0.266667 0 0 0.216 0 0.48V3.84C0 4.104 0.266667 4.32 0.592593 4.32H6.96296V12.36C6.96296 17.25 10.1037 21.552 14.8444 24C10.1037 26.448 6.96296 30.75 6.96296 35.64V43.68H0.592593C0.266667 43.68 0 43.896 0 44.16V47.52C0 47.784 0.266667 48 0.592593 48H47.4074C47.7333 48 48 47.784 48 47.52V44.16C48 43.896 47.7333 43.68 47.4074 43.68H41.037V35.64C41.037 30.75 37.8963 26.448 33.1556 24C37.8963 21.552 41.037 17.25 41.037 12.36ZM35.7037 35.64V43.68H12.2963V35.64C12.2963 33.108 13.5111 30.726 15.7259 28.938C17.9333 27.144 20.8741 26.16 24 26.16C27.1259 26.16 30.0667 27.144 32.2741 28.938C34.4889 30.726 35.7037 33.108 35.7037 35.64ZM35.7037 12.36C35.7037 14.892 34.4889 17.274 32.2741 19.062C30.0667 20.856 27.1259 21.84 24 21.84C20.8741 21.84 17.9333 20.856 15.7259 19.062C14.6345 18.1847 13.7693 17.1404 13.1805 15.9899C12.5917 14.8393 12.2912 13.6055 12.2963 12.36V4.32H35.7037V12.36Z" fill="#474747"/>
</svg>
