<svg width="48" height="48" viewBox="0 0 48 48" fill="none" xmlns="http://www.w3.org/2000/svg">
<path d="M47.8632 2.63038L45.3689 0.135344C45.2748 0.0411918 45.1572 0 45.0336 0C44.9101 0 44.7924 0.0470763 44.6983 0.135344L40.2216 4.61346C38.2754 3.29446 35.9778 2.59123 33.627 2.59507C30.6151 2.59507 27.6031 3.74255 25.303 6.0434L19.3085 12.0397C19.2209 12.1282 19.1718 12.2477 19.1718 12.3722C19.1718 12.4967 19.2209 12.6162 19.3085 12.7047L35.2919 28.6929C35.386 28.7871 35.5036 28.8282 35.6272 28.8282C35.7448 28.8282 35.8684 28.7812 35.9625 28.6929L41.957 22.6966C46.0102 18.6363 46.4867 12.3575 43.3865 7.77933L47.8632 3.30121C48.0456 3.11291 48.0456 2.8128 47.8632 2.63038ZM39.1215 19.8661L35.6272 23.3615L24.6382 12.3693L28.1326 8.87385C29.5974 7.40861 31.5504 6.59654 33.627 6.59654C35.7036 6.59654 37.6508 7.40272 39.1215 8.87385C40.5863 10.3391 41.3981 12.2928 41.3981 14.37C41.3981 16.4472 40.5863 18.395 39.1215 19.8661ZM27.9326 26.0449C27.8441 25.9573 27.7247 25.9081 27.6002 25.9081C27.4757 25.9081 27.3563 25.9573 27.2678 26.0449L23.3499 29.964L18.0378 24.6502L21.9616 20.7253C22.144 20.5428 22.144 20.2427 21.9616 20.0603L19.8203 17.9184C19.7318 17.8307 19.6124 17.7816 19.4879 17.7816C19.3634 17.7816 19.244 17.8307 19.1556 17.9184L15.2318 21.8433L12.7022 19.313C12.6583 19.269 12.606 19.2344 12.5483 19.2111C12.4907 19.1879 12.429 19.1765 12.3669 19.1776C12.2492 19.1776 12.1257 19.2247 12.0316 19.313L6.04297 25.3093C1.98977 29.3696 1.51327 35.6484 4.61346 40.2266L0.136715 44.7047C0.0491315 44.7931 0 44.9126 0 45.0371C0 45.1617 0.0491315 45.2811 0.136715 45.3696L2.63099 47.8647C2.72511 47.9588 2.84277 48 2.9663 48C3.08984 48 3.20749 47.9529 3.30162 47.8647L7.77837 43.3865C9.76085 44.7341 12.0669 45.4049 14.3729 45.4049C17.3849 45.4049 20.3968 44.2574 22.6969 41.9566L28.6914 35.9603C28.8738 35.7779 28.8738 35.4778 28.6914 35.2953L26.1619 32.765L30.0856 28.84C30.268 28.6576 30.268 28.3575 30.0856 28.1751L27.9326 26.0449ZM19.8615 39.132C19.1415 39.8559 18.2852 40.4299 17.3421 40.8208C16.399 41.2117 15.3878 41.4117 14.367 41.4093C12.2904 41.4093 10.3432 40.6032 8.87255 39.132C8.14887 38.4118 7.57507 37.5553 7.1843 36.6119C6.79354 35.6685 6.59356 34.657 6.59594 33.6359C6.59594 31.5587 7.40187 29.6109 8.87255 28.1398L12.3669 24.6444L23.3558 35.6366L19.8615 39.132Z" fill="#474747"/>
</svg>
