<svg width="17" height="16" viewBox="0 0 17 16" fill="none" xmlns="http://www.w3.org/2000/svg">
<g id="Icon Left">
<g id="ellipsis-v">
<path d="M8.5 4C9.60449 4 10.5 3.10456 10.5 2C10.5 0.895437 9.60449 0 8.5 0C7.39551 0 6.5 0.895437 6.5 2C6.5 3.10456 7.39551 4 8.5 4Z" fill="#212121"/>
<path d="M10.5 7.98438C10.5 9.08894 9.60449 9.98438 8.5 9.98438C7.39551 9.98438 6.5 9.08894 6.5 7.98438C6.5 6.87981 7.39551 5.98438 8.5 5.98438C9.60449 5.98438 10.5 6.87981 10.5 7.98438Z" fill="#212121"/>
<path d="M10.5 14C10.5 15.1046 9.60449 16 8.5 16C7.39551 16 6.5 15.1046 6.5 14C6.5 12.8954 7.39551 12 8.5 12C9.60449 12 10.5 12.8954 10.5 14Z" fill="#212121"/>
</g>
</g>
</svg>
